<svg version="1.1" xmlns="http://www.w3.org/2000/svg" style="display: block;" viewBox="0 0 2048 747" width="822" height="300" preserveAspectRatio="none">
<path transform="translate(0,0)" fill="rgb(202,249,234)" d="M 468.116 4.54151 C 494.515 3.63425 519.405 2.95268 544.479 12.8377 C 575.345 25.0063 602.051 51.5054 615.815 81.5985 C 619.14 88.8672 622.334 96.112 625.521 103.385 C 634.43 103.936 646.779 102.879 656.027 102.997 C 685.215 103.367 713.899 100.12 742.73 98.8754 C 780.267 97.2547 817.28 97.1764 855.089 95.3634 C 889.729 93.7024 929.481 90.4734 963.781 95.1448 C 983.628 97.8479 996.106 104.882 1013.47 113.58 C 1024.73 103.268 1025.75 94.4463 1033.11 81.9945 C 1040.62 69.2951 1055.18 56.2225 1067.39 47.7624 C 1087.18 33.7887 1110.56 25.8067 1134.76 24.7703 C 1162.71 23.4089 1186.48 28.7452 1213.58 34.315 C 1301.74 52.4306 1390.25 68.6721 1478.36 87.0116 C 1493.86 90.2384 1508.34 97.3014 1523.21 100.001 C 1529.21 97.3895 1544.04 88.0636 1550.87 84.3832 C 1577.23 69.9785 1607.55 64.5226 1637.27 68.8364 C 1680.31 75.3684 1724.46 85.9416 1767.36 93.7624 L 1890.26 116.837 C 1942.7 127.002 1987.03 131.246 2021.45 177.292 C 2062.42 232.093 2037.19 302.416 2024.84 362.473 L 1990.46 526.881 C 1985.96 547.523 1981.57 568.191 1977.31 588.882 C 1972.61 612.342 1966.9 644.454 1957.62 666.06 C 1950.48 682.671 1927.23 707.896 1912.58 718.51 C 1859.13 757.231 1796.31 739.032 1737.48 727.136 C 1710.97 721.672 1684.4 716.482 1657.78 711.566 C 1646.36 709.371 1635.29 706.658 1623.78 704.825 C 1583.13 697.992 1518.6 681.925 1476.11 675.643 C 1469.73 674.7 1451.61 692.826 1443.88 698.34 C 1418.44 716.482 1387.37 722.201 1356.53 719.538 C 1267.79 705.171 1179.41 683.229 1090.8 667.455 C 1071.22 663.969 1051.05 657.971 1031.41 657.317 C 1009.8 690.322 979.994 716.973 940.646 725.275 C 917.869 730.081 898.23 729.841 875.107 730.792 L 812.11 733.512 C 738.526 736.58 665.876 740.857 591.972 741.008 C 544.337 741.106 505.427 725.6 479.086 682.922 C 475.651 677.356 471.407 665.262 463.827 664.686 C 442.225 663.046 420.045 663.973 398.323 664.027 L 210.985 663.734 C 153.788 663.538 90.2467 671.975 45.7517 628.88 C -4.78283 579.934 7.73645 522.695 15.0299 461.169 L 30.0457 334.978 L 45.5113 200.559 C 48.6564 174.191 52.9171 133.472 60.0963 108.83 C 66.1699 87.9828 77.26 68.942 92.3962 53.3734 C 139.252 4.73321 187.425 12.4024 247.725 10.2333 C 321.155 7.22587 394.628 5.32838 468.116 4.54151 z"/>
<path transform="translate(0,0)" fill="rgb(175,247,223)" d="M 617.979 116.282 C 653.215 113.544 682.333 113.107 717.506 111.798 L 829.382 106.859 C 855.605 105.472 881.838 104.292 908.08 103.319 C 948.975 101.697 976.111 102.216 1011.57 125.146 C 1013.89 126.646 1022.12 131.831 1024.25 130.676 C 1028.45 122.46 1028.31 112.918 1032.16 105.217 C 1047.32 75.0094 1069.66 52.4205 1102.51 42.0254 C 1119.09 36.7802 1144.21 33.1942 1161.82 35.0622 C 1173.94 36.3475 1190.23 40.7419 1202.8 42.8751 C 1228.84 47.2937 1255.21 52.6859 1281.05 58.0751 C 1329.92 68.6201 1379.31 76.6513 1428.07 87.261 C 1433.79 88.5059 1441.59 88.1852 1446.97 89.6073 C 1474.24 96.8202 1500.38 98.7016 1524.19 115.636 C 1533.31 109.061 1541.96 101.641 1551.42 95.2431 C 1564.53 86.3695 1581.67 82.7611 1596.89 80.015 C 1609.84 77.6785 1613.78 78.0926 1627.05 78.608 C 1598.9 80.2939 1577.4 82.1079 1551.19 96.676 C 1543.13 101.157 1540.5 108.257 1528.56 113.684 C 1529.28 116.093 1550.67 135.236 1555.12 141.391 C 1592.75 193.492 1580.14 248.841 1564.66 305.66 C 1564.5 306.238 1563.02 307.753 1562.51 308.221 C 1559.4 318.017 1557.39 328.9 1555.25 338.988 C 1544.48 389.907 1529.96 439.986 1518.2 490.686 C 1512.05 518.228 1505.65 545.714 1499 573.141 C 1493.28 597.439 1484.89 640.947 1469.61 660.481 C 1468.95 660.595 1467.19 661.214 1466.63 661.601 C 1465.07 662.679 1452.44 681.195 1447.82 685.305 C 1437.15 694.798 1402.19 709.146 1388 710.334 C 1375.81 711.355 1362.65 711.079 1350.52 709.569 C 1318.72 705.611 1286.75 696.931 1255.38 690.458 C 1239.34 687.146 1031.96 644.714 1028.8 645.845 C 1025.91 646.879 1017.97 658.999 1015.69 661.828 C 1001.65 679.193 992.231 692.199 972.031 703.419 C 953.545 713.688 936.023 717.927 915.134 720.391 C 907.399 721.303 899.204 720.932 891.403 721.158 C 873.763 721.616 856.126 722.179 838.493 722.846 L 736.01 727.508 C 704.726 729.35 673.416 730.725 642.092 731.633 C 621.001 732.436 599.059 733.055 577.931 732.77 C 569.433 730.63 558.685 730.508 550.494 727.793 C 511.551 714.884 492.803 687.396 475.333 655.34 C 466.837 641.746 470.24 597.397 471.033 580.615 C 454.205 581.596 432.131 581.032 414.865 581.009 L 416.165 531.85 C 390.549 569.302 344.219 588.694 299.666 587.703 C 256.869 586.366 216.32 568.227 186.797 537.213 C 150.943 499.654 135.522 451.408 136.737 400.126 C 138.154 348.044 160.121 298.638 197.841 262.697 C 241.438 221.266 300.763 205.65 358.814 223.126 C 386.685 231.516 404.506 246.618 423.937 267.08 C 423.932 205.422 429.863 143.273 431.183 81.4058 C 462.489 81.232 493.795 81.2398 525.1 81.4291 L 522.106 169.671 C 529.215 168.243 558.546 116.511 617.979 116.282 z"/>
<path transform="translate(0,0)" fill="rgb(0,35,74)" d="M 431.183 81.4058 C 462.489 81.232 493.795 81.2398 525.1 81.4291 L 522.106 169.671 C 529.215 168.243 558.546 116.511 617.979 116.282 C 627.591 136.079 601.493 289.471 606.503 297.299 C 601.394 305.401 593.481 317.527 589.895 326.128 C 568.769 376.794 567.028 429.826 586.045 480.946 C 580.386 485.64 579.196 488.296 579.182 496.059 C 579.043 571.222 559.652 637.158 475.333 655.34 C 466.837 641.746 470.24 597.397 471.033 580.615 C 454.205 581.596 432.131 581.032 414.865 581.009 L 416.165 531.85 C 390.549 569.302 344.219 588.694 299.666 587.703 C 256.869 586.366 216.32 568.227 186.797 537.213 C 150.943 499.654 135.522 451.408 136.737 400.126 C 138.154 348.044 160.121 298.638 197.841 262.697 C 241.438 221.266 300.763 205.65 358.814 223.126 C 386.685 231.516 404.506 246.618 423.937 267.08 C 423.932 205.422 429.863 143.273 431.183 81.4058 z"/>
<path transform="translate(0,0)" fill="rgb(49,201,155)" d="M 617.979 116.282 C 627.591 136.079 601.493 289.471 606.503 297.299 C 601.394 305.401 593.481 317.527 589.895 326.128 C 568.769 376.794 567.028 429.826 586.045 480.946 C 580.386 485.64 579.196 488.296 579.182 496.059 C 579.043 571.222 559.652 637.158 475.333 655.34 C 466.837 641.746 470.24 597.397 471.033 580.615 C 477.004 579.721 497.426 579.915 504.479 579.831 C 507.486 489.764 511.318 399.727 515.974 309.731 C 518.126 262.918 519.035 216.727 522.106 169.671 C 529.215 168.243 558.546 116.511 617.979 116.282 z"/>
<path transform="translate(0,0)" fill="rgb(202,249,234)" d="M 314.023 303.936 C 368.124 298.054 416.696 337.278 422.338 391.404 C 427.98 445.531 388.543 493.929 334.392 499.332 C 280.579 504.702 232.547 465.563 226.94 411.774 C 221.332 357.984 260.259 309.78 314.023 303.936 z"/>
<path transform="translate(0,0)" fill="rgb(0,35,74)" d="M 1051.22 170.433 C 1061.65 175.168 1120.99 189.157 1134.53 191.507 L 1123.2 236.115 C 1131.46 229.065 1138.77 223.134 1148.53 218.025 C 1208.44 186.658 1297.02 219.986 1309.81 289.662 C 1327.18 273.854 1339.59 266.155 1363.25 260.792 C 1395.67 253.445 1435.1 260.004 1462.24 279.907 C 1525.57 325.287 1509.61 389.002 1493.69 452.92 L 1475.34 526.476 L 1460.61 584.862 C 1457.17 598.407 1453.19 615.85 1447.84 628.524 C 1441.57 626.466 1434.88 624.824 1428.27 624.352 C 1410.63 618.64 1380.34 611.666 1361.85 607.962 C 1377.02 540.107 1399.27 472.39 1413.49 404.125 C 1416.9 387.756 1415.94 369.809 1405.78 355.839 C 1397.07 343.937 1384.03 335.941 1369.47 333.576 C 1343.94 329.573 1314.76 342.293 1305.86 366.953 C 1294.95 397.154 1288.63 431.657 1280.84 462.864 L 1263.83 530.012 C 1259.85 545.532 1254.94 562.919 1252.46 578.556 C 1239.54 577.011 1175.16 561.593 1164.65 556.372 C 1177.54 513.737 1187.81 466.906 1198.76 423.484 C 1204.41 397.854 1212.8 372.337 1216.44 346.367 C 1219.68 323.21 1212.86 302.19 1192.63 289.55 C 1166.09 272.975 1123.52 280.81 1109.49 310.066 C 1100.27 329.3 1095.27 357.158 1090.05 378.411 L 1061.74 493.981 C 1059.54 502.601 1056.11 521.81 1052.93 529.17 L 1052.66 529.787 C 1023.86 524.166 996.332 514.488 966.634 509.927 C 967.624 497.586 976.078 466.078 979.342 452.762 L 1007.17 339.709 C 1012.82 316.14 1019.73 291.55 1021.95 267.528 L 1023.71 289.095 C 1026.16 276.83 1026.53 263.291 1029.26 251.174 C 1035.14 225.001 1041.85 198.569 1048.73 172.632 C 1048.73 172.631 1051.03 170.598 1051.22 170.433 z"/>
<path transform="translate(0,0)" fill="rgb(0,35,74)" d="M 606.503 297.299 C 638.251 255.679 673.879 229.967 726.317 222.334 C 823.633 208.168 910.034 272.096 922.118 370.175 C 924.778 391.767 923.824 410.909 922.855 432.744 C 844.612 432.951 766.104 435.711 687.827 436.253 C 679.203 436.313 670.239 436.275 661.638 436.631 C 677.892 497.262 727.949 517.43 786.896 502.568 C 809.449 496.881 825.787 484.628 843.142 469.95 C 859.548 482.04 875.226 495.243 891.562 507.447 C 895.945 510.722 900.74 514.225 904.68 517.969 C 840.733 596.659 714.819 614.736 635.91 549.094 C 614.716 531.462 595.297 507.111 586.045 480.946 C 567.028 429.826 568.769 376.794 589.895 326.128 C 593.481 317.527 601.394 305.401 606.503 297.299 z"/>
<path transform="translate(0,0)" fill="rgb(175,247,223)" d="M 737.205 300.249 C 790.885 294.762 823.628 319.191 835.484 371.275 C 812.702 372.7 784.086 372.438 761.046 372.857 C 732.235 373.047 689.997 375.069 662.392 373.154 C 672.984 332.772 695.044 307.886 737.205 300.249 z"/>
<path transform="translate(0,0)" fill="rgb(49,201,155)" d="M 1524.36 115.542 C 1552.23 135.539 1569.82 162.532 1576.08 196.494 C 1583.74 237.985 1568.32 270.162 1562.51 308.221 C 1559.4 318.017 1557.39 328.9 1555.25 338.988 C 1544.48 389.907 1529.96 439.986 1518.2 490.686 C 1512.05 518.228 1505.65 545.714 1499 573.141 C 1493.28 597.439 1484.89 640.947 1469.61 660.481 C 1451.73 652.678 1440.38 638.731 1428.27 624.352 C 1434.88 624.824 1441.57 626.466 1447.84 628.524 C 1453.19 615.85 1457.17 598.407 1460.61 584.862 L 1475.34 526.476 L 1493.69 452.92 C 1509.61 389.002 1525.57 325.287 1462.24 279.907 C 1478.45 222.777 1477.49 156.88 1524.36 115.542 z"/>
<path transform="translate(0,0)" fill="rgb(49,201,155)" d="M 1022.08 132.83 C 1034.96 141.413 1044.53 156.615 1051.22 170.433 C 1051.03 170.598 1048.73 172.631 1048.73 172.632 C 1041.85 198.569 1035.14 225.001 1029.26 251.174 C 1026.53 263.291 1026.16 276.83 1023.71 289.095 L 1021.95 267.528 C 1019.73 291.55 1012.82 316.14 1007.17 339.709 L 979.342 452.762 C 976.078 466.078 967.624 497.586 966.634 509.927 C 996.332 514.488 1023.86 524.166 1052.66 529.787 C 1043.84 540.948 1042.13 595.385 1037.42 612.62 C 1034.31 624.013 1031 634.464 1027.21 645.851 C 1024.55 645.156 1021.92 644.363 1019.33 643.474 C 971.126 627.326 938.217 579.443 942.773 528.874 C 946.287 489.872 956.585 447.887 964.596 409.421 C 977.397 345.321 990.775 281.338 1004.73 217.48 C 1008.45 199.961 1011.94 182.397 1015.22 164.79 C 1016.98 155.51 1019.15 141.471 1022.08 132.83 z"/>
<path transform="translate(0,0)" fill="rgb(0,35,74)" d="M 1723.37 216.656 C 1824.82 208.55 1913.62 284.254 1921.67 385.71 C 1929.72 487.165 1853.96 575.923 1752.5 583.914 C 1651.12 591.899 1562.45 516.219 1554.41 414.844 C 1546.37 313.469 1622 224.755 1723.37 216.656 z"/>
<path transform="translate(0,0)" fill="rgb(175,247,223)" d="M 1731.06 305.129 C 1783.31 301.132 1828.96 340.121 1833.18 392.349 C 1837.4 444.578 1798.61 490.392 1746.4 494.838 C 1693.87 499.311 1647.71 460.23 1643.47 407.684 C 1639.22 355.137 1678.5 309.15 1731.06 305.129 z"/>
</svg>